<?xml version="1.0" encoding="UTF-8" standalone="no"?>
<svg
   xmlns:dc="http://purl.org/dc/elements/1.1/"
   xmlns:cc="http://creativecommons.org/ns#"
   xmlns:rdf="http://www.w3.org/1999/02/22-rdf-syntax-ns#"
   xmlns:svg="http://www.w3.org/2000/svg"
   xmlns="http://www.w3.org/2000/svg"
   viewBox="0 0 278.92001 88.480003"
   height="88.480003"
   width="278.92001"
   xml:space="preserve"
   id="svg2"
   version="1.1"><metadata
     id="metadata8"><rdf:RDF><cc:Work
         rdf:about=""><dc:format>image/svg+xml</dc:format><dc:type
           rdf:resource="http://purl.org/dc/dcmitype/StillImage" /></cc:Work></rdf:RDF></metadata><defs
     id="defs6" /><g
     transform="matrix(1.3333333,0,0,-1.3333333,0,88.48)"
     id="g10"><g
       transform="scale(0.1)"
       id="g12"><path
         id="path14"
         style="fill:#ffffff;fill-opacity:1;fill-rule:nonzero;stroke:none"
         d="m 767.773,161.484 c -10.273,11.094 -23.847,22.598 -39.882,22.598 -19.707,0 -28.75,-8.203 -28.75,-20.957 0,-36.562 106.836,-20.957 106.836,-99.0234 C 805.977,19.7266 772.285,0 727.5,0 693.398,0 665.43,15.1953 646.543,43.1445 l 34.102,25.4688 c 11.933,-16.4258 27.949,-30.8203 49.726,-30.8203 18.067,0 30.41,9.8633 30.41,24.2578 0,36.5625 -106.836,23.418 -106.836,97.7932 0,39.863 33.692,62.051 70.664,62.051 28.36,0 56.719,-10.684 75.196,-32.461 l -32.032,-27.95" /><path
         id="path16"
         style="fill:#ffffff;fill-opacity:1;fill-rule:nonzero;stroke:none"
         d="M 1020.31,217.793 V 4.10156 H 973.477 V 27.1094 C 954.57,13.9648 932.793,0 907.734,0 865,0 844.453,27.9297 844.453,71.4844 V 217.793 h 50.938 V 78.8867 c 0,-28.7695 9.062,-37.7929 26.308,-37.7929 22.207,0 39.043,12.7343 47.676,22.5976 V 217.793 h 50.935" /><path
         id="path18"
         style="fill:#ffffff;fill-opacity:1;fill-rule:nonzero;stroke:none"
         d="m 1072.93,300.801 h 50.94 V 198.066 h 0.82 c 10.27,13.555 34.53,23.829 51.79,23.829 55.06,0 85.47,-52.598 85.47,-105.196 C 1261.95,50.1172 1233.18,0 1176.48,0 c -23,0 -39.88,9.45313 -57.94,27.1094 l -5.77,-23.00784 h -39.84 z m 50.94,-240.8205 c 10.7,-8.2032 17.67,-18.8867 39.45,-18.8867 30.41,0 47.68,24.6484 47.68,69.8442 0,45.214 -17.27,69.863 -47.68,69.863 -16.44,0 -29.18,-8.633 -39.45,-18.086 V 59.9805" /><path
         id="path20"
         style="fill:#ffffff;fill-opacity:1;fill-rule:nonzero;stroke:none"
         d="m 1410.75,161.484 c -10.27,11.094 -23.82,22.598 -39.84,22.598 -19.73,0 -28.77,-8.203 -28.77,-20.957 0,-36.562 106.84,-20.957 106.84,-99.0234 C 1448.98,19.7266 1415.29,0 1370.48,0 c -34.1,0 -62.03,15.1953 -80.94,43.1445 l 34.1,25.4688 c 11.92,-16.4258 27.95,-30.8203 49.73,-30.8203 18.09,0 30.41,9.8633 30.41,24.2578 0,36.5625 -106.85,23.418 -106.85,97.7932 0,39.863 33.71,62.051 70.7,62.051 28.34,0 56.7,-10.684 75.19,-32.461 l -32.07,-27.95" /><path
         id="path22"
         style="fill:#ffffff;fill-opacity:1;fill-rule:nonzero;stroke:none"
         d="M 1485.63,4.10156 V 300.801 h 50.97 V 194.766 c 15.61,13.164 36.56,27.129 61.64,27.129 42.74,0 63.28,-27.95 63.28,-71.504 V 4.10156 h -50.97 V 142.988 c 0,28.77 -9.03,37.813 -26.29,37.813 -22.19,0 -39.03,-12.735 -47.66,-22.598 V 4.10156 h -50.97" /><path
         id="path24"
         style="fill:#ffffff;fill-opacity:1;fill-rule:nonzero;stroke:none"
         d="m 1755.84,102.734 c 0.82,-44.3942 20.55,-61.6402 44.37,-61.6402 23.83,0 34.93,10.6835 47.68,25.4687 l 36.97,-23.0078 C 1865.14,13.1445 1836.39,0 1795.29,0 c -55.47,0 -90.41,43.1445 -90.41,110.938 0,67.812 34.94,110.957 92.87,110.957 55.9,0.41 87.11,-46.856 87.11,-98.204 v -20.957 z m 82.19,34.512 c -0.82,29.59 -16.45,46.836 -41.1,46.836 -24.64,0 -40.27,-17.246 -41.09,-46.836 h 82.19" /><path
         id="path26"
         style="fill:#ffffff;fill-opacity:1;fill-rule:nonzero;stroke:none"
         d="M 1932.13,4.10156 V 300.801 h 50.94 V 4.10156 h -50.94" /><path
         id="path28"
         style="fill:#ffffff;fill-opacity:1;fill-rule:nonzero;stroke:none"
         d="M 2040.97,4.10156 V 300.801 h 50.96 V 4.10156 h -50.96" /><path
         id="path30"
         style="fill:#bcb563;fill-opacity:1;fill-rule:nonzero;stroke:none"
         d="M 20.9375,510.703 0,512.031 c 0,0 -1.25,-34.648 0.234375,-59.492 C 1.83594,425.664 3.67188,407.344 10.2734,377.344 16.4844,348.75 30.8203,310.664 48.75,285.82 c 18.6328,-25.742 62.461,-61.289 108.516,-82.265 51.523,-23.438 115.195,-39.297 165.547,-37.266 50.312,2.07 94.765,14.805 127.382,26.211 31.328,11.016 81.875,34.102 108.985,54.297 29.414,21.914 66.406,64.805 75.39,118.594 8.985,53.789 3.047,88.086 -23.203,130.859 -26.211,42.734 -63.164,76.172 -119.219,104.18 -53.75,26.875 -102.539,37.656 -143.945,47.304 -40.937,9.532 -85.156,15.86 -85.156,15.86 l -20.352,-8.281 c 0,0 23.789,-4.102 41.016,-11.016 17.227,-6.914 32.773,-22.774 32.773,-22.774 0,0 51.368,-13.789 83.125,-27.578 31.719,-13.789 70.782,-34.726 87.344,-68.515 16.563,-33.789 14.961,-74.414 4.61,-106.641 -10.157,-31.641 -30.782,-55.195 -53.79,-69.961 -20.273,-12.969 -28.085,-15.586 -28.085,-15.586 0,0 4.96,-28.945 -6.407,-53.789 -9.648,-21.211 -31.718,-39.101 -62.07,-43.242 -32.93,-4.531 -63.477,14.219 -74.961,30.82 -11.758,16.953 -14.492,37.032 -14.492,37.032 0,0 -57.305,-1.407 -109.727,17.226 -52.4216,18.633 -83.1638,51.25 -100.4294,92.617 -17.2266,41.367 -20.6641,96.797 -20.6641,96.797" /></g></g></svg>